<svg xmlns="http://www.w3.org/2000/svg" viewBox="0 0 500 374"><defs><style>.cls-1{fill:#3e0046;}.cls-2{fill:#fff;}</style></defs><title>Ally_BlueberryBG</title><g id="Layer_2" data-name="Layer 2"><g id="Layer_1-2" data-name="Layer 1"><rect class="cls-1" width="500" height="374" rx="22.57"/></g><g id="banner"><path class="cls-2" d="M371.09,147.87c-.59,1.53-1.19,3-1.77,4.59Q350,204,330.7,255.62c-.07.19-.15.37-.23.56H304.79c.08-.22.14-.4.22-.58q6.17-15,12.35-30a1.52,1.52,0,0,0,0-1.27q-14.85-37.89-29.68-75.79c-.08-.2-.15-.41-.27-.73h.63q12.31,0,24.62,0a.69.69,0,0,1,.78.57q7.94,23,15.9,46.08c.07.2.16.39.24.59h.16c.08-.19.17-.37.24-.57q4.9-14.91,9.82-29.82c1.78-5.42,3.58-10.84,5.34-16.27a.72.72,0,0,1,.83-.58q12.27,0,24.56,0l.55,0Z"/><path class="cls-2" d="M244.82,117.82c0,.26,0,.52,0,.78q0,53.33,0,106.65v.82H220.51c0-.18,0-.36,0-.54V117.82Z"/><path class="cls-2" d="M280.7,117.82c0,.28,0,.56,0,.83V225.12a4.17,4.17,0,0,0,0,.5c0,.41-.13.5-.51.5H256.83l-.45,0V118.6c0-.26,0-.52,0-.78Z"/><path class="cls-2" d="M209.38,225.55H187.1v-.76q0-18.56,0-37.12a16.29,16.29,0,0,0-2.16-8.75,17.14,17.14,0,0,0-13.2-8.52,17.58,17.58,0,0,0-16.19,6.45,15.23,15.23,0,0,0-3.51,8.81,16.39,16.39,0,0,0,1.88,9.75,17,17,0,0,0,12.47,8.77,23.37,23.37,0,0,0,3.74.28c5,0,10.09,0,15.13,0h.79c-.18.23-.29.37-.41.5q-9.92,10.64-19.83,21.29a1.51,1.51,0,0,1-1.4.55,37.06,37.06,0,0,1-28.25-16.14,38.72,38.72,0,0,1-7-18.9c-1.09-11.2,1.6-21.39,8.82-30.14a37,37,0,0,1,22.37-13.15,44.06,44.06,0,0,1,21.9,1.06c12.22,4,20.49,12.12,24.77,24.26a42.33,42.33,0,0,1,2.39,14.34c0,12.22,0,24.45,0,36.67Z"/></g></g></svg>